# xmcd
# 
# Track frame offsets:
#     150
#     11727
#     21704
#     34404
#     48326
#     63401
#     73298
#     84081
#     95843
#     108091
#     119965
#     130883
#     142340
#     156051
#     167039
#     178830
#     191779
#     200205
#     214652
#     228371
# 
# Disc length: 3176
# 
# Revision: 4
# Processed by: cddbd v1.5.2PL0 Copyright (c) Steve Scherf et al.
# Submitted via: fre:ac v1.1beta1pre4
# 
DISCID=3a0c6614
DTITLE=Various Artist - L'Intégrale Country
DYEAR=2010
DGENRE=Country
TTITLE0=Willie Nelson - Touch Me
TTITLE1=Hank Locklin - Please Help Me, I'm Falling
TTITLE2=Lynn Anderson - Top Of The World
TTITLE3=Moe Bandy - I Cheated Me Right Out Of You
TTITLE4=Kenny Rogers - Conditions
TTITLE5=Johnny Cash - The Rock Island Line
TTITLE6=Dolly Parton - God Didn't Make Honky Tonk Angels
TTITLE7=Donna Fargo - The Happiest Girl In The Whole USA
TTITLE8=Jack Greene - All The Time
TTITLE9=Roy Drusky - Take These Chains From My Heart
TTITLE10=Johnny Cash - I Heard The Lonesome Whistle
TTITLE11=Hank Snow - (Now And Then There's) A Fool Such As I
TTITLE12=Willie Nelson - The Last Letter
TTITLE13=Kenny Rogers - Goodtime Liberator
TTITLE14=Jeanne Pruett - Standing On The Promises
TTITLE15=Freddy Fender - Sliver Wings
TTITLE16=Johnny Cash - Country Boy
TTITLE17=Willie Nelson - Will You Remember
TTITLE18=Lacy J. Dalton - 16th Avenue
TTITLE19=Kitty Wells - Can't Stop Loving You
EXTD=
EXTT0=
EXTT1=
EXTT2=
EXTT3=
EXTT4=
EXTT5=
EXTT6=
EXTT7=
EXTT8=
EXTT9=
EXTT10=
EXTT11=
EXTT12=
EXTT13=
EXTT14=
EXTT15=
EXTT16=
EXTT17=
EXTT18=
EXTT19=
PLAYORDER=
